<svg xmlns="http://www.w3.org/2000/svg" viewBox="0 0 343 289" fill="none"><g fill="#FFF9DE" clip-path="url(#clip0_28_78)"><path d="M204.856 245.526c.552.965 1.538 1.527 2.801 1.527l.049 1.001c-3.801-.299-8.851-.25-12.706 0v-.703l2.751-.643V226.99c-.688-.53-1.611-.842-2.701-.87v-.801c3.602-.05 7.403-.349 9.552-.752l.249.249v20.71h.005Zm18.611 2.528c-3.801-.299-8.851-.25-12.706 0v-.703l2.747-.643v-11.827c0-5.49-1.059-6.863-3.308-6.863-2.322 0-4.032 1.459-4.032 1.459l-.362-.453s3.584-4.534 8.724-4.534c4.457 0 6.077 3.433 6.077 8.584v12.443c.552.974 1.539 1.536 2.806 1.536l.054 1.001ZM250.966 245.272c-1.774 2.46-3.457 3.339-5.457 3.339-2.625 0-5.068-1.712-5.014-5.114l.118-7.561v-.077c-4.675.218-7.055 2.084-7.055 5.187 0 2.854 1.95 4.643 3.851 4.607 1.398-.027 2.416-1.074 2.416-1.074l.285.576c-2.479 2.468-4.502 3.456-6.701 3.456-3.801 0-6.453-2.904-6.453-6.41 0-4.598 4.643-6.903 13.661-7.053.032-5.426-.552-10.02-3.561-10.02-2.1 0-4.091 2.215-2.1 6.972-3.488 2.863-6.407.489-6.407-2.338 0-3.583 4.606-5.286 10.109-5.286 7.575 0 9.317 2.849 9.104 9.812l-.226 7.293c-.136 4.457 1.756 4.307 2.996 3.234l.434.457ZM267.424 248.054c-3.801-.299-8.851-.25-12.707 0v-.703l2.752-.643V226.99c-.688-.53-1.611-.842-2.702-.87v-.801c3.602-.05 7.403-.349 9.552-.752l.249.249v20.705c.552.965 1.539 1.527 2.801 1.527l.055 1.006Zm-10.679-31.781a3.752 3.752 0 0 1 3.751-3.756 3.757 3.757 0 0 1 0 7.515 3.755 3.755 0 0 1-3.751-3.759ZM283.628 248.054c-3.801-.299-8.851-.25-12.706 0v-.703l2.751-.643v-33.285c-.688-.53-1.611-.842-2.702-.869v-.802c3.602-.05 7.403-.349 9.553-.752l.249.249v34.277c.552.965 1.538 1.527 2.801 1.527l.054 1.001ZM296.565 248.602c-4.751 0-9.186-1.364-9.186-5.164 0-3.307 3.534-4.227 5.779-2.8-.715 4.322.452 7.212 3.756 7.212 2.506 0 3.9-1.626 3.9-3.407 0-5.422-13.154-7.034-13.154-14.037 0-3.248 2.751-5.925 9.552-5.939 4.371-.009 8.512 1.323 8.512 4.394-.005 2.546-2.874 3.9-5.367 2.093.403-1.038.534-1.844.534-2.451 0-1.952-1.471-3.438-3.778-3.438-2.286 0-3.304 1.477-3.304 2.849 0 4.969 13.358 6.519 13.358 14.274 0 4.765-4.909 6.418-10.602 6.414ZM311.19 245.752a3.003 3.003 0 0 1 3-3.003 3.003 3.003 0 0 1 0 6.007 3 3 0 0 1-3-3.004ZM80.13 218.301c0 .023 57.595.023 57.595.023-8.733-.023-15.806-7.103-15.806-15.845V82.974a15.8 15.8 0 0 1 4.634-11.193 15.778 15.778 0 0 1 11.181-4.63c0-.022-57.59-.022-57.59-.022 8.728.022 15.805 7.102 15.805 15.845v58.004l-54.164.299V82.978c0-8.737 7.077-15.822 15.806-15.822 0-.023-57.591-.023-57.591-.023 8.729.023 15.806 7.103 15.806 15.845v97.545A38.517 38.517 0 0 0 28.35 208c8.906 8.621 19.549 6.211 29.255 12.91 9.014 6.22 15.743 15.877 17.96 26.654 1.733 8.425-.199 18.929-8.036 22.454-5.937 2.668-12.97.235-18.368-3.402-5.398-3.638-10.014-8.471-15.855-11.343-4.032-1.979-9.856-2.441-12.137 1.432-1.18 2.006-.95 4.534-.439 6.808 2.616 11.65 12.032 21.503 23.54 24.633 11.512 3.13 24.612-.598 32.757-9.322 8.145-8.725 10.973-22.065 7.072-33.349-5.964-17.249-20.887-20.189-33.711-29.991-9.114-6.967-8.607-24.38-8.607-34.961v-37.57h54.165v59.53c-.01 8.734-7.086 15.818-15.815 15.818Zm105.488 27.428-.344-.041c-12.208-1.721-12.394-15.532-12.394-37.602v-56.767l-25.974 6.967-13.892 3.724v.022a11.034 11.034 0 0 1 9.58 1.907 11.057 11.057 0 0 1 4.321 8.77v45.945a25.315 25.315 0 0 0 4.471 14.256 28.48 28.48 0 0 0 10.747 9.322 35.137 35.137 0 0 0 12.842 3.488c4.095.272 8.209.326 12.313.158.452 0 .715-.009.742-.009v-.013c-.208 0-.416-.014-.615-.018a18.718 18.718 0 0 1-1.797-.109Zm61.944-37.543c-15.168 0-15.25-30.372-15.25-37.67v-35.558l-36.847-66.257a7.845 7.845 0 0 1 6.842-11.65v-.02h-56.179v.019c8.1 0 15.566 4.394 19.503 11.478l22.494 40.447c-24.512-1.776-25.915-4.933-27.607-32.918-1.819 29.996-3.29 31.468-33.255 33.289 29.965 1.821 31.436 3.293 33.255 33.29 1.706-28.135 3.108-31.179 28.005-32.95l17.815 32.03v28.8a38.532 38.532 0 0 0 12.539 27.478 36.876 36.876 0 0 0 13.159 8.204 41.821 41.821 0 0 0 15.526 2.106v-.023a17.842 17.842 0 0 1-2.819-.14c.936.068 1.878.077 2.819.045Zm94.388-64.16c-.036-.172-.09-.339-.127-.512l.032-.018-.027-.022a42.641 42.641 0 0 0-7.905-16.457 49.652 49.652 0 0 0-13.313-11.841 58.659 58.659 0 0 0-16.444-7.021 42.471 42.471 0 0 0-17.29-.838c-.507.054-1.028.14-1.539.245a21.455 21.455 0 0 1 4.068-.349c12.964.725 22.155 18.699 27.024 41.579.05.222.086.425.136.634h-.01c5.01 23.994 3.72 44.953-8.828 50.135a20.67 20.67 0 0 1-2.38.716l-.317.091v-.009a21.09 21.09 0 0 1-3.701.339c-13.082-.462-22.463-18.744-27.513-42.149a28.2 28.2 0 0 0-.149-.693c-4.96-23.455-3.679-44.039 8.711-49.375.805-.317 1.633-.58 2.475-.797-.258.068-.516.14-.774.208l-.149.032a42.58 42.58 0 0 0-15.585 7.841 58.553 58.553 0 0 0-12.163 13.114 49.73 49.73 0 0 0-7.349 16.234 42.556 42.556 0 0 0-.534 18.251l-.013.032.018.013c.036.172.054.349.09.521a42.532 42.532 0 0 0 8.041 17.005 49.652 49.652 0 0 0 13.313 11.841 58.381 58.381 0 0 0 16.44 7.016 42.356 42.356 0 0 0 17.313.834 16.493 16.493 0 0 0 1.52-.245 42.689 42.689 0 0 0 16.974-8.212 58.713 58.713 0 0 0 12.168-13.114 49.656 49.656 0 0 0 7.348-16.235 42.495 42.495 0 0 0 .439-18.794Zm-70.568-78.619.669-2.314c-.004-.24.702-2.632.697-2.872.534-11.352-3.095-22.223-10.131-31.034C254.368 18.86 242.566 11.77 230.05 7.55c-12.517-4.222-25.784-5.744-38.979-6.387-5.254-.254-10.589-.367-15.693.901-6.466 1.608-12.634 5.703-14.507 12.511-.693 2.514-.629 5.223.325 7.656 2.553 6.509 9.413 7.976 15.603 8.37 11.679.748 23.363-.978 35.06-1.4 11.697-.42 23.874.594 34.087 6.31 9.186 5.142 17.304 13.595 17.748 23.692.027.09.054.19.077.28.054.204.099.4.122.607.126 1.192.122 1.94.022 2.705.037.44.037.883-.022 1.34v.3c-.027.294-.082.58-.14.865-.064 7.247-4.412 17.494-6.589 21.47-.077.141-.154.264-.249.395-1.525 2.124-25.15 35.767-9.349 14.744 3.05-4.063 16.087-22.852 18.784-27.183 1.964-3.166 4.321-6.826 5.032-9.318Zm13.955 42.159-.004-.009-.317.091c-.055.013-.104.031-.154.045.154-.041.312-.082.471-.122l.004-.005Z"/></g><defs><clipPath id="clip0_28_78"><path fill="#fff" d="M0 0h343v289H0z"/></clipPath></defs></svg>
