<svg xmlns="http://www.w3.org/2000/svg" class="logo-text" viewbox="0 0 98 10" fill="none"><path d="M.752 4.943v-.034C.752 2.282 2.8.125 5.738.125c1.805 0 2.88.581 3.772 1.43L8.168 3.044c-.74-.649-1.493-1.04-2.441-1.04-1.609 0-2.777 1.297-2.777 2.873v.033c0 1.588 1.134 2.907 2.777 2.907 1.087 0 1.758-.425 2.51-1.085L9.579 8.04c-.983 1.017-2.082 1.655-3.922 1.655-2.811 0-4.905-2.102-4.905-4.751ZM13.353.293h4.373c1.215 0 2.163.335 2.788.939.532.514.821 1.24.821 2.113v.022c0 1.487-.833 2.426-2.047 2.862l2.337 3.297H19.16l-2.047-2.962h-1.655v2.962h-2.105V.293Zm4.234 4.482c1.03 0 1.608-.525 1.608-1.307v-.023c0-.872-.625-1.319-1.654-1.319h-2.094v2.65h2.14ZM25.483.293h7.22v1.81h-5.126v1.868h4.512v1.81h-4.512v1.945h5.195v1.811h-7.289V.293ZM40.261.225h1.944L46.3 9.536h-2.198l-.88-2.068h-4.048l-.88 2.068h-2.14L40.261.225Zm2.221 5.444L41.21 2.673l-1.273 2.996h2.545ZM49.898.293h1.944l4.477 5.69V.293h2.082v9.244h-1.793l-4.627-5.88v5.88h-2.083V.293ZM62.979.293h3.725c3.008 0 5.079 1.99 5.079 4.594v.023c0 2.604-2.083 4.616-5.08 4.616H62.98V.293Zm3.725 7.4c1.724 0 2.88-1.118 2.88-2.761V4.91c0-1.633-1.156-2.784-2.88-2.784h-1.631v5.567h1.63ZM75.43 5.569V.293h2.106v5.231c0 1.51.775 2.28 2.059 2.28 1.284 0 2.06-.748 2.06-2.213V.293h2.116v5.22c0 2.795-1.631 4.17-4.2 4.17-2.567 0-4.14-1.386-4.14-4.114ZM95.283.293l-2.51 3.901L90.25.293h-2.267v9.244h2.07V3.535l2.118 3.118h1.133l2.152-3.152v6.036h2.094V.293h-2.267Z"/></svg>