<svg xmlns="http://www.w3.org/2000/svg" xmlns:xlink="http://www.w3.org/1999/xlink" viewBox="0 0 898 635">
<path fill="none" stroke="white" stroke-width="1.3" d="M611.8,45.5
c16.4-27.8,47-44.8,79-44.8h31.5c96.4,0,174.3,77.9,175,174.3v149.1c0,96.4-77.9,174.3-174.3,174.3H359.5
c-12.4,0-23.4,5.8-29.2,16.1c0,0-44.5,74.6-44.5,74.6c-16.4,27.8-47,44.8-79,44.8h-31.5C78.8,633.9,0.9,556,0.9,459.6V310.5
c0-96.4,77.9-174.3,174.3-174.3h363.5c11.7,0,22.7-5.8,28.5-16.1C567.3,120.1,611.8,45.5,611.8,45.5z"/>
<path fill="none" stroke="white" stroke-width="1.3" d="M394.5,408.3c16.4-27.8,47-44.8,79-44.8h248.1c21.9,0,40.1-18.2,40.1-40.1V175c0-21.9-18.2-40.1-40.1-40.1
H576.1c-11.7,0-22.7,5.8-28.5,16.1c0,0-44.5,74.6-44.5,74.6c-16.4,27.8-47,44.8-79,44.8H175.2c-21.9,0-40.1,18.2-40.1,40.1v147.7
c0,21.9,18.2,40.1,40.1,40.1h146.3c11.7,0,22.7-5.8,28.5-16.1C350,482.2,394.5,408.3,394.5,408.3z "/>
</svg>
