<svg class="logo-single" width="22" height="15" viewBox="0 0 22 15" fill="none" xmlns="http://www.w3.org/2000/svg">
<path d="M18.2963 7.45112C18.2963 7.93013 17.877 8.3293 17.3738 8.3293L11.5703 8.3293C10.8155 8.3293 10.0942 8.71251 9.70847 9.33522L8.66853 10.9798C8.53434 11.2034 8.28275 11.3311 8.01438 11.3311L4.59265 11.3311C4.08946 11.3311 3.67013 10.9319 3.67013 10.4529L3.67013 7.16371C3.67013 6.6847 4.08946 6.28553 4.59265 6.28553L10.4129 6.28553C11.1677 6.28553 11.889 5.90232 12.2748 5.27961L13.3147 3.61904C13.4489 3.3955 13.7005 3.26776 13.9688 3.26776L17.3738 3.26776C17.877 3.26776 18.2963 3.66694 18.2963 4.14595L18.2963 7.45112ZM17.3906 0.249999L16.6526 0.249999C15.8978 0.249999 15.1765 0.633207 14.7907 1.25592L13.7508 2.91649C13.6166 3.14003 13.365 3.26776 13.0966 3.26776L4.59265 3.26776C2.32827 3.26776 0.5 5.00817 0.500001 7.16371L0.500001 10.4848C0.500001 12.6404 2.32828 14.3808 4.59265 14.3808L5.33067 14.3808C6.08546 14.3808 6.80671 13.9976 7.19249 13.3749L8.23243 11.7143C8.36661 11.4908 8.61821 11.363 8.90336 11.363L17.4073 11.363C19.6717 11.363 21.5 9.62263 21.5 7.46708L21.5 4.14595C21.4832 1.9904 19.655 0.249998 17.3906 0.249999Z"/>
</svg>
